<?xml version="1.0" encoding="UTF-8" standalone="no"?>
<!-- Created with Inkscape (http://www.inkscape.org/) -->

<svg
   width="512"
   height="512"
   viewBox="0 0 512 512"
   version="1.1"
   id="svg5"
   xml:space="preserve"
   inkscape:version="1.2.2 (b0a8486541, 2022-12-01)"
   sodipodi:docname="logo_eventi.svg"
   xmlns:inkscape="http://www.inkscape.org/namespaces/inkscape"
   xmlns:sodipodi="http://sodipodi.sourceforge.net/DTD/sodipodi-0.dtd"
   xmlns="http://www.w3.org/2000/svg"
   xmlns:svg="http://www.w3.org/2000/svg"><sodipodi:namedview
     id="namedview7"
     pagecolor="#505050"
     bordercolor="#ffffff"
     borderopacity="1"
     inkscape:showpageshadow="0"
     inkscape:pageopacity="0"
     inkscape:pagecheckerboard="1"
     inkscape:deskcolor="#505050"
     inkscape:document-units="px"
     showgrid="false"
     inkscape:zoom="0.69044441"
     inkscape:cx="250.56326"
     inkscape:cy="264.32251"
     inkscape:window-width="1366"
     inkscape:window-height="712"
     inkscape:window-x="0"
     inkscape:window-y="27"
     inkscape:window-maximized="1"
     inkscape:current-layer="layer1" /><defs
     id="defs2" /><g
     inkscape:label="Capa 1"
     inkscape:groupmode="layer"
     id="layer1"><path
       style="fill:#ffffff"
       d="m 36.631199,488.62791 c -11.11981,-11.16811 -20.21784,-20.95615 -20.21784,-21.75119 0,-1.93063 314.079301,-315.94316 316.010331,-315.94316 1.96065,0 41.98967,40.05153 41.98967,42.01327 0,1.97418 -314.065151,315.98673 -316.039661,315.98673 -0.83856,0 -10.62269,-9.13754 -21.7425,-20.30565 z m 72.028231,-71.93609 -10.245701,-10.2457 -28.99489,28.98196 -28.99489,28.98196 10.23469,10.26964 10.23468,10.26964 29.0059,-29.0059 29.005911,-29.0059 z m 237,-237 -10.2457,-10.2457 -28.99489,28.98196 -28.99489,28.98196 10.23469,10.26964 10.23469,10.26964 29.0059,-29.0059 29.0059,-29.0059 z m 88.06073,42.46541 c -3.46951,-14.22408 -3.8608,-16.84947 -2.618,-17.56533 0.80366,-0.46292 1.63397,-0.66891 1.84512,-0.45775 0.53787,0.53786 5.57376,34.02507 5.17651,34.42231 -0.17844,0.17844 -2.16008,-7.20121 -4.40363,-16.39923 z m 44.44192,-53.3929 -3.75128,-3.02681 -3.64323,2.14956 c -5.39897,3.18547 -6.76328,2.16662 -4.41976,-3.3006 l 1.89653,-4.42441 -3.41549,-3.31042 c -1.87852,-1.82073 -3.41549,-3.67215 -3.41549,-4.11426 0,-0.44211 2.40674,-0.80383 5.34831,-0.80383 5.33234,0 5.35312,-0.0122 6.95781,-4.0974 1.95051,-4.96552 3.81316,-4.71773 5.06879,0.67429 1.09367,4.69654 1.97246,5.38778 6.87509,5.4078 4.98557,0.0204 4.9463,2.26709 -0.0903,5.16579 -3.84003,2.21005 -3.84024,2.21052 -2.89809,6.62796 0.51863,2.43172 0.55923,4.79119 0.0903,5.24844 -0.46855,0.45689 -2.53999,-0.53136 -4.60319,-2.19611 z m -82.8337,-26.28606 -4.36644,-3.45529 -3.02429,2.00925 c -8.60478,5.71678 -10.48791,4.94307 -7.44709,-3.05972 l 2.04809,-5.39014 -3.25308,-2.57441 c -1.7892,-1.41592 -3.91551,-3.07183 -4.72513,-3.67979 -0.87573,-0.65761 -1.20207,-1.80894 -0.80559,-2.84215 0.54787,-1.4277 1.67759,-1.67586 6.34881,-1.39459 l 5.68236,0.34214 2.21293,-5.5 c 1.21712,-3.025 2.82077,-5.5 3.56367,-5.5 0.75987,0 2.16156,2.49558 3.2043,5.70497 l 1.85356,5.70497 6.13639,0.29503 c 7.92503,0.38101 8.38999,2.16674 1.69897,6.52503 l -4.95885,3.23002 1.44736,4.76998 c 2.81315,9.27116 1.47039,10.42234 -5.61597,4.8147 z m 61.61226,-19.3342 c -0.3159,-0.82322 -0.362,-1.70912 -0.10244,-1.96867 0.66417,-0.66418 31.87134,-10.27898 32.22265,-9.92768 0.15846,0.15847 -6.87452,3.23674 -15.62887,6.84061 -12.93464,5.32475 -16.0246,6.27203 -16.49134,5.05574 z m -159.52728,-25.794261 -18.5,-2.329542 15.40899,0.456651 c 8.47495,0.251158 17.81245,0.456651 20.75,0.456651 4.67434,0 5.34101,0.249641 5.34101,2 0,2.413531 1.00557,2.439061 -23,-0.58376 z m 66.19634,-14.16624 c -1.06691,-1.5125 -3.13014,-5.1125 -4.58494,-8 -1.4548,-2.8875 -3.20001,-5.249923 -3.87825,-5.249829 -0.67823,9.5e-5 -4.76024,0.675095 -9.07112,1.5 -4.31088,0.824906 -8.00755,1.499829 -8.21481,1.499829 -0.20727,0 -0.86794,-0.917598 -1.46815,-2.039107 -0.95432,-1.783174 -0.2745,-2.885158 5.41635,-8.779854 l 6.50764,-6.740746 -3.95153,-7.282411 c -6.72832,-12.399857 -4.95411,-14.509806 7.21285,-8.577738 l 7.95037,3.876246 6.56506,-6.728195 c 3.61078,-3.700506 6.90486,-6.728194 7.32018,-6.728194 0.41532,0 1.30425,0.66166 1.97541,1.470355 0.95012,1.144827 0.96562,3.384053 0.07,10.114223 -0.63266,4.754127 -1.01419,8.765158 -0.84784,8.913401 0.16634,0.148243 4.01494,2.126865 8.55244,4.396937 11.46475,5.735718 11.07196,8.003828 -1.75,10.105083 -4.125,0.676002 -8.00509,1.635003 -8.62242,2.131112 -0.61733,0.496109 -1.4418,4.143226 -1.83216,8.104704 -1.08441,11.00509 -3.43281,13.566027 -7.34908,8.014184 z m 48.21037,-37.015313 c -0.73539,-0.494175 1.37233,-7.356736 6.43841,-20.962944 4.14243,-11.125543 7.6438,-20.1161591 7.78081,-19.9791471 0.21077,0.210767 -3.34613,12.9757431 -10.15866,36.4574041 -1.53024,5.27447 -2.04283,5.840597 -4.06056,4.484687 z"
       id="path856" /></g></svg>
